<svg width="1024" height="1024" viewBox="0 0 1024 1024" fill="none" xmlns="http://www.w3.org/2000/svg">
<path d="M0 217.237L2.64273 216.317C4.02154 215.857 52.1652 215.742 109.731 216.087C167.296 216.432 214.75 216.547 215.21 216.317C215.67 216.087 216.014 167.353 216.014 107.929L215.899 1.32038e-05H0V217.237ZM112.718 32.1832H183.842V183.904L177.293 184.019C155.806 184.134 32.8618 183.789 32.632 183.559C32.2873 183.329 31.9425 40.1141 32.1724 33.6774C32.1724 32.2981 37.228 31.0338 39.9856 31.8384C40.9048 31.9533 73.5368 32.1832 112.718 32.1832Z" fill="#1D5B5F"/>
<path d="M60.3232 155.744L156.266 156.433V108.733C156.266 66.4353 156.036 61.0331 154.427 60.4584C153.393 60.1136 131.677 59.7688 106.169 59.7688H59.6338L60.3232 155.744Z" fill="#1D5B5F"/>
<path d="M248.187 32.1832V64.3664L280.359 64.1365V48.2748C280.359 32.7579 280.359 32.4131 283.002 31.8384C286.679 31.0338 306.671 31.6085 307.591 32.5281C307.935 32.9878 308.395 40.229 308.395 48.6196L308.51 63.7917L372.855 64.9411L372.395 78.1592C372.165 85.4004 371.82 91.6072 371.591 91.8371C371.246 92.1819 364.237 92.4118 355.849 92.4118L340.682 92.5267L339.533 152.295H308.51L308.165 200.111L307.935 248.04L295.526 248.5C288.747 248.845 282.542 248.845 281.853 248.5C280.704 248.155 280.359 240.914 280.359 217.811C280.359 191.835 280.129 187.237 278.521 185.743C275.878 182.984 249.91 183.099 248.876 185.743C248.531 186.777 248.187 201.26 248.187 217.926V248.27L242.786 248.385C239.684 248.5 218.197 248.615 194.758 248.73L152.244 248.845L152.014 310.338L151.899 371.831L124.093 372.52L123.864 310.683L123.519 248.845L91.5763 248.5L59.5188 248.27L59.8636 253.673C59.9785 256.776 60.0934 262.868 59.9785 267.35L59.7486 275.511L46.9946 276.316C39.8707 276.775 33.781 276.775 33.2065 276.201C32.7469 275.741 32.1724 269.304 31.9425 262.063L31.5978 248.845H16.6607C7.46858 248.96 1.37882 248.5 0.91921 247.696C0.459605 247.121 0 254.017 0 263.213V279.994L13.2136 279.764C21.9461 279.649 26.6571 279.994 27.3465 280.913C27.921 281.603 28.1508 288.155 27.8061 295.396L27.3465 308.729L14.8223 308.499C7.92819 308.269 1.83842 307.809 1.14901 307.464C0.344704 307.005 0 312.407 0 323.211V339.648L16.2011 339.992L32.5171 340.452L31.9425 327.004C31.5978 318.039 31.8276 313.441 32.632 313.211C35.9641 312.177 57.1059 311.717 58.4847 312.522C59.6337 313.326 59.9785 319.533 60.2083 342.636L60.3232 371.831H75.605C86.8653 371.831 91.1167 372.176 91.8061 373.325C92.6104 374.704 92.2657 396.658 91.3465 399.646C91.0018 400.681 87.0951 400.796 76.4093 400.336C64.5745 399.761 61.5871 399.991 60.7828 401.255C60.2083 402.175 59.7487 416.427 59.8636 433.094C59.8636 449.76 59.7486 463.668 59.4039 463.898C58.5996 464.817 34.93 465.392 33.6661 464.587C32.9767 464.128 32.1724 457.461 31.8276 448.266C31.368 439.76 31.1382 432.519 31.0233 432.289C31.0233 432.174 24.7038 432.059 17.0054 432.289C9.1921 432.519 2.18312 432.289 1.49372 431.829C0.344704 431.14 0 434.473 0 447.461V464.128L12.6391 463.898C19.6481 463.783 25.9677 464.013 26.6571 464.472C27.6912 465.162 28.1508 469.875 28.1508 480.679V495.966H43.3178C51.7056 496.081 58.7145 496.311 59.0592 496.541C59.289 496.885 59.7487 503.322 59.8636 510.908L60.3232 524.701L31.1382 524.471C8.38779 524.356 1.72352 524.011 1.03411 522.747C0.459605 521.942 0 536.195 0 554.585V587.918H12.8689C20.7971 587.918 26.0826 588.378 26.8869 589.182C27.8061 589.987 28.1508 595.389 27.921 605.159C27.8061 613.205 27.4614 619.986 27.3465 620.101C27.1167 620.331 20.912 620.676 13.5583 620.906L0 621.25V684.927L29.5296 685.042C45.8456 685.042 59.4039 685.502 59.8636 685.962C60.2083 686.421 60.3232 692.628 59.9785 699.639L59.5188 712.628H27.2316L27.8061 728.145C28.2657 739.868 28.0359 743.891 27.0018 744.811C25.1634 746.305 3.44704 746.075 1.49372 744.466C0.344704 743.661 0 746.88 0 759.868V776.419L32.2873 777.109L32.0574 762.397C31.8276 754.351 32.0574 747.11 32.5171 746.42C33.3214 745.041 53.8887 743.547 57.5655 744.466C59.5188 745.041 59.7486 746.42 59.7486 760.328C59.7486 772.167 60.0934 775.73 61.3573 776.19C62.1616 776.534 97.4363 776.879 139.605 776.879L216.244 777.109L215.67 761.247L215.21 745.386L185.91 745.041L156.495 744.811L156.036 730.099C155.691 722.053 155.691 714.812 156.036 714.122C156.381 712.972 163.504 712.628 186.255 712.628H216.014V697.111C216.014 682.054 215.899 681.594 213.487 681.019C211.993 680.674 197.63 680.559 181.544 680.674L152.244 681.019L151.555 712.743L124.668 712.053L124.093 683.893C123.749 668.376 123.634 655.043 123.864 654.238C124.208 653.204 137.767 652.859 186.255 652.859H248.187V622.055C248.187 599.642 247.842 590.906 246.808 589.872C245.889 588.952 240.603 588.493 230.722 588.493H216.129L215.44 556.884L200.273 556.539C182.233 556.194 183.612 554.7 184.072 574.7L184.417 587.918L215.785 588.607L216.129 591.711C216.359 593.435 216.474 600.791 216.244 608.032L215.899 621.25L124.093 620.561V634.354C124.093 647.572 123.978 648.031 121.451 648.491C120.072 648.721 99.3896 648.721 75.605 648.491L32.1724 647.917V640.79C32.1724 636.882 31.9425 631.365 31.5978 628.607C31.2531 625.848 31.368 622.86 31.9425 621.94C32.8618 620.676 38.7217 620.446 62.6212 620.561L92.0359 620.791L91.8061 591.481C91.6912 575.274 91.8061 561.712 92.2657 561.367C93.1849 560.332 122.944 560.447 123.864 561.482C124.208 561.827 124.553 567.918 124.553 575.045L124.668 587.918H155.691V556.884L140.294 556.539C131.792 556.424 124.553 556.079 124.323 555.735C123.978 555.39 123.864 541.942 123.978 525.85L124.208 496.426L95.368 496.656C75.8348 496.771 66.0682 496.426 65.2639 495.621C63.8851 494.242 63.1957 466.311 64.4596 465.047C65.3788 464.128 214.98 464.128 215.899 465.047C216.704 465.852 216.014 495.736 215.21 496.541C214.98 496.885 200.618 497.115 183.497 497.115H152.244L151.555 528.609L183.842 528.494H216.014L215.785 513.667C215.67 504.701 216.014 498.38 216.704 497.69C217.393 497 224.287 496.426 233.02 496.426L248.187 496.311V436.772L258.873 436.657C264.618 436.657 271.856 436.657 274.959 436.772L280.359 436.887V399.876L248.761 400.566L248.417 416.427C248.187 429.301 247.842 432.404 246.348 432.979C245.429 433.324 231.986 433.209 216.589 432.749L188.438 431.944V404.704L215.44 404.014L215.67 388.612C215.785 380.221 216.129 373.095 216.474 372.75C216.819 372.405 224.057 372.291 232.675 372.291L248.417 372.52L248.072 343.211C247.957 327.004 248.072 313.556 248.302 313.326C249.221 312.292 274.384 312.062 275.303 312.982C275.763 313.441 276.223 319.648 276.223 326.774L276.338 339.648L339.533 340.797L340.223 372.405H372.395L371.706 340.797L340.108 340.107L339.993 329.533C339.878 323.671 339.878 316.775 340.108 314.016C340.337 309.418 340.108 309.189 337.005 309.074C335.282 308.959 321.723 308.614 307.016 308.154L280.129 307.464L279.899 293.901C279.67 281.028 279.785 280.454 281.968 280.339C285.874 280.109 299.662 280.109 336.89 280.339L372.165 280.454L372.855 312.062H385.723C392.732 312.062 398.937 312.522 399.512 312.982C399.971 313.556 400.431 319.763 400.431 326.774V339.648L436.969 340.337L436.28 327.809C435.935 320.912 436.05 314.706 436.625 313.786C437.429 312.522 443.174 312.292 466.729 312.522C482.7 312.637 496.029 313.096 496.373 313.326C497.408 314.476 496.144 339.648 494.88 340.452C494.19 340.797 487.066 340.912 478.908 340.567L464.201 339.877V372.405L456.503 372.635C452.136 372.865 445.127 372.98 440.646 372.98H432.603L432.488 389.876C432.373 400.106 432.718 406.887 433.408 406.887C433.982 406.887 436.165 405.623 438.118 404.244C446.391 398.152 464.89 389.417 476.61 386.198C490.513 382.29 514.987 379.877 520.732 381.831C525.443 383.44 527.167 382.29 527.627 377.348L527.971 372.98L561.063 372.291L560.488 359.187C560.144 351.946 560.144 344.705 560.373 343.096L560.948 340.222H588.409L588.065 327.119C587.95 319.878 588.065 313.671 588.409 313.326C589.443 312.292 647.124 312.407 647.928 313.441C648.388 313.901 648.618 320.223 648.273 327.234L647.813 340.222H620.467V429.99L617.364 432.864L614.377 435.622L617.364 438.841C618.973 440.565 622.535 446.542 625.178 452.059C627.82 457.576 631.038 462.748 632.302 463.323C633.565 464.013 636.668 464.242 639.655 463.783C647.698 462.633 648.043 463.323 648.043 481.139V496.426L643.792 496.771L639.425 497.115L639.311 506.885C639.081 527.804 635.289 545.275 627.361 561.482L621.846 572.976L620.811 597.113L619.892 621.136L609.551 621.365C593.005 621.71 589.443 621.021 588.065 617.113C586.686 613.09 584.732 612.975 579.332 616.308C575.196 618.837 575.196 618.837 577.953 619.641C579.562 620.101 582.549 620.446 584.618 620.561C586.571 620.676 588.409 621.365 588.524 622.055C588.639 622.86 588.754 629.986 588.754 637.917L588.869 652.284L604.381 652.629C612.883 652.744 620.122 653.434 620.467 654.008C620.811 654.583 620.926 660.33 620.811 666.882C620.582 673.433 620.467 679.065 620.467 679.525C620.467 679.985 613.343 680.559 604.725 680.674L588.869 681.019V712.053H604.036C612.309 712.053 619.548 712.513 620.122 712.973C621.041 714.007 620.811 743.776 619.777 744.811C619.203 745.271 497.293 744.926 496.718 744.351C496.144 743.776 496.144 686.077 496.718 685.387C497.178 685.042 503.612 684.582 510.966 684.582L524.524 684.467V712.053L560.718 712.283L560.488 696.881C560.373 686.996 559.914 681.479 559.109 681.364C558.42 681.249 555.318 681.134 552.1 681.134C548.998 681.019 542.334 680.789 537.508 680.674L528.546 680.444L528.316 658.951L527.971 637.342L512.804 636.997C497.752 636.652 497.522 636.767 496.948 639.296C496.603 640.79 496.488 643.204 496.603 644.813L496.948 647.687L464.546 648.376L463.856 639.066C463.512 634.009 462.592 629.066 461.903 628.147C459.835 625.733 451.562 625.963 442.37 628.836C432.833 631.71 431.454 633.089 432.373 638.836C432.833 641.135 432.833 644.238 432.373 645.733C431.799 648.261 431.454 648.376 417.781 648.031L403.878 647.687L404.108 643.434C404.452 638.376 402.959 637.917 395.605 640.675C382.047 645.503 374.578 646.307 374.578 642.974C374.578 641.02 386.298 597.688 391.354 580.907C392.847 575.734 394.111 569.987 394.111 568.263C394.111 566.424 392.273 559.643 389.975 553.206C386.987 544.241 385.379 536.655 383.54 522.632C381.357 504.586 381.242 503.667 383.196 493.092C384.345 487.116 386.183 478.495 387.332 474.012C388.596 469.645 389.515 465.622 389.515 465.162C389.515 464.702 385.609 464.357 380.898 464.357H372.28V525.965C372.395 559.873 372.05 587.918 371.706 588.378C371.246 588.722 349.645 589.067 323.677 589.067H276.338L275.993 634.698L275.763 680.444L268.524 680.559C264.618 680.674 258.528 680.789 255.081 680.904L248.761 681.019L248.417 775.04L248.187 868.946L261.285 868.716C268.524 868.486 274.844 868.831 275.418 869.291C276.338 870.21 276.338 895.152 275.418 896.072C275.188 896.417 268.984 896.647 261.515 896.876L248.187 897.106V960.898L280.474 960.668L280.244 947.565C280.129 940.324 280.359 934.117 280.819 933.657C281.853 932.623 305.293 932.393 306.901 933.427C307.706 933.887 308.05 948.599 307.935 975.38C307.935 998.024 308.165 1018.14 308.51 1020.09L309.314 1023.54H324.366L339.533 1023.43L339.074 1009.63C338.614 991.012 338.039 991.472 357.573 992.506L372.395 993.311L372.165 964.346C372.05 948.255 372.395 935.036 372.969 934.577C373.544 934.002 379.174 933.197 385.609 932.738C401.12 931.703 401.12 931.703 400.661 948.025L400.431 960.323L418.585 960.668L436.625 960.898L436.395 929.06L436.05 897.106L404.223 896.761L372.28 896.532V885.727C372.28 879.75 372.05 874.233 371.706 873.314C371.361 872.509 371.591 871.015 372.28 870.095C373.199 868.716 378.025 868.486 404.912 868.831L436.625 869.176V809.177H464.201V792.166C464.201 780.442 463.741 774.695 462.822 773.776C461.903 772.856 457.192 772.396 449.034 772.396H436.625V745.156L420.883 745.041C412.266 744.926 405.142 744.696 404.912 744.466C404.797 744.351 404.452 737.34 404.338 728.834C404.108 711.478 404.223 711.019 412.381 712.053C415.138 712.398 427.892 712.628 440.761 712.628H464.201V744.811H496.373L496.603 788.488C496.718 812.511 496.833 833.085 496.833 834.119C496.948 835.958 495.224 836.303 480.862 836.763L464.776 837.338L464.316 869.176L479.828 868.716C496.373 868.371 498.327 868.946 496.948 874.118C496.718 875.383 496.373 888.141 496.373 902.508V928.6L464.776 929.289V960.323L493.041 960.438C508.553 960.438 522.111 960.783 523.03 961.128C524.409 961.703 524.754 964.461 524.524 977.219L524.294 992.506L511.885 992.851C504.991 992.966 498.671 993.771 497.867 994.46C496.833 995.265 496.373 999.058 496.373 1007.33C496.373 1025.03 494.995 1023.66 512.804 1023.66L527.971 1023.54L527.627 1009.75C527.397 1002.16 527.741 995.265 528.316 994.46C529.005 993.426 533.257 992.736 541.53 992.392C556.811 991.817 557.156 992.162 556.352 1003.2C556.122 1007.68 556.237 1014 556.582 1017.45L557.386 1023.77L620.582 1023.89C669.644 1024 683.662 1023.77 683.777 1022.62C683.777 1021.93 683.777 1015.49 683.662 1008.48C683.548 991.817 683.203 992.162 699.289 992.621C705.953 992.736 711.813 993.196 712.158 993.541C712.503 993.886 712.732 999.518 712.618 1005.95C712.503 1012.51 712.618 1019.17 712.962 1020.78L713.652 1023.66L743.986 1023.43L743.756 1008.48L743.641 993.656L737.436 994.001C734.104 994.231 727.095 994.116 721.925 993.656L712.388 992.851V960.898H697.565C686.19 960.898 682.513 961.243 681.479 962.507C680.445 963.657 680.215 968.484 680.56 978.139C680.79 985.725 680.675 992.277 680.215 992.506C678.951 993.311 654.018 993.656 653.214 992.966C652.869 992.621 652.524 978.139 652.294 960.783L652.065 929.289H636.898C628.625 929.289 621.386 928.945 620.926 928.37C620.467 927.91 620.237 922.393 620.352 916.186C620.467 909.98 620.237 902.853 619.777 900.554L618.973 896.302L604.266 896.761C596.223 896.876 589.329 896.876 589.099 896.532C588.754 896.187 588.18 890.44 587.72 883.773C586.686 867.107 586.456 867.222 605.759 868.141L620.352 868.831L621.041 837.338L652.984 836.993L684.926 836.763L684.352 824.119C683.892 814.35 684.122 811.246 685.271 809.982C686.42 808.832 690.212 808.373 698.485 808.258C713.077 808.143 713.767 808.717 712.732 818.832C712.388 822.855 712.503 828.602 712.847 831.476L713.652 836.878L728.589 836.533C744.56 836.188 746.399 836.763 745.135 841.935C744.905 843.199 744.56 849.751 744.56 856.532V868.946L712.732 869.176L680.79 869.521V932.738L711.813 933.082C728.819 933.197 743.181 933.772 743.756 934.347C744.33 934.922 744.905 948.255 745.02 963.886L745.135 992.506L777.077 992.621L808.905 992.851V960.898H814.535C817.522 960.898 823.153 960.668 826.829 960.208C836.941 959.289 837.056 959.519 836.711 976.185C836.251 994.116 835.792 993.656 851.993 992.736C858.772 992.277 865.206 992.392 866.815 993.081C869.688 994.116 869.688 994.231 868.998 1003.77C868.653 1009.06 868.653 1015.72 869.113 1018.48L869.917 1023.66L914.959 1023.54H960L960.345 1010.55C960.804 992.736 961.149 993.081 945.637 993.081H932.998V960.898L936.215 960.783C937.939 960.668 944.029 960.553 949.659 960.438L960 960.323V947.45C960 940.439 960.345 934.347 960.689 934.002C961.034 933.542 971.95 933.312 984.819 933.312C997.688 933.312 1011.71 932.968 1015.84 932.623L1023.31 931.933L1023.43 901.129V870.325L1019.4 869.521C1017.22 869.176 1003.2 868.946 988.266 869.061L961.264 869.291L960.23 864.808C959.655 862.394 959.54 855.383 959.885 849.176C960.345 839.866 960.23 838.027 958.736 837.452C957.702 837.108 944.373 836.763 928.977 836.763H901.056L900.481 832.97C899.447 826.533 899.562 812.166 900.826 810.327C901.63 808.947 904.847 808.603 917.142 808.603H932.424L932.768 777.454L932.998 746.305L913.235 745.615C902.32 745.156 887.842 744.811 881.178 744.811H868.998L868.194 729.639C867.734 719.984 867.849 714.122 868.653 713.317C869.343 712.628 881.293 712.283 901.515 712.513L933.343 712.858L932.768 699.41L932.309 685.962L935.181 684.812C938.628 683.548 958.736 684.008 960.23 685.387C960.689 685.962 961.149 692.168 961.149 699.18V712.053H976.316C984.589 712.053 991.713 712.398 992.172 712.743C993.092 713.777 993.206 715.731 992.977 745.615L992.747 772.396H977.81C964.251 772.396 962.872 772.626 961.723 774.58C961.149 775.845 960.574 783.776 960.574 792.281C960.574 805.384 960.804 807.913 962.413 808.488C964.826 809.407 1007.8 809.407 1016.76 808.488L1023.77 807.683L1023.54 649.756L1008.49 648.951C1000.1 648.491 993.091 647.802 992.747 647.457C991.483 646.192 991.483 625.388 992.632 623.089C993.781 621.021 995.045 620.676 1001.82 620.676C1006.08 620.676 1012.74 620.331 1016.42 619.986L1023.2 619.296V604.699C1023.2 596.423 1022.74 589.872 1022.05 589.412C1021.47 588.952 1014.58 588.493 1006.88 588.493H992.747V575.964C992.747 569.068 992.402 561.827 992.057 559.873L991.368 556.309H962.183C939.662 556.309 932.998 555.965 932.998 554.815C932.653 545.965 933.228 497 933.688 496.541C934.032 496.196 940.237 496.081 947.476 496.196L960.574 496.426L960.345 465.737L948.05 464.932C941.386 464.587 935.296 464.013 934.607 463.783C932.768 463.208 931.275 439.186 932.998 437.461C933.802 436.657 943.109 436.312 963.447 436.657L992.747 437.002V401.485L983.325 400.796C978.039 400.336 964.596 399.991 953.451 399.991H932.998V359.992C932.998 338.038 932.653 319.073 932.424 317.809C931.275 313.326 933.343 312.407 944.603 312.062C950.578 311.832 956.553 311.947 958.047 312.292L960.574 312.867V370.911L964.136 371.716C966.09 372.061 973.443 372.405 980.337 372.405H992.862L992.747 358.268C992.632 350.567 992.632 343.326 992.632 342.176C992.747 340.452 993.896 340.222 1001.25 340.222C1005.85 340.222 1012.74 339.877 1016.42 339.533L1023.2 338.843V324.246C1023.31 315.51 1022.85 309.418 1022.05 308.844C1021.47 308.384 1014.69 308.039 1007.11 308.269L993.321 308.499L992.517 295.281C991.943 286.775 992.057 281.833 992.862 281.028C993.551 280.454 997.458 279.879 1001.71 279.879C1005.96 279.764 1012.51 279.649 1016.3 279.534L1023.2 279.304V249.42L1019.75 248.845C1017.91 248.615 1003.89 248.5 988.725 248.615L961.149 248.845L960.46 275.856H933.113L932.424 248.845L896.115 248.155L896.23 276.66C896.345 292.407 896.345 305.855 896.23 306.545C896.23 307.694 892.668 308.039 882.442 308.039H868.653V299.648C868.653 295.166 868.309 287.925 867.849 283.557L867.16 275.856H836.596L835.907 248.845H804.883L804.539 294.476L804.309 340.222H776.732L776.618 334.705C776.618 331.717 776.503 324.59 776.388 318.958L776.158 308.614L769.264 308.499C765.472 308.499 758.348 308.384 753.522 308.269L744.56 308.039V248.5L756.395 248.04C762.829 247.811 769.724 247.926 771.792 248.385C773.86 248.845 775.698 248.845 776.043 248.5C776.503 248.155 776.732 234.248 776.732 217.696C776.732 190.8 776.503 187.352 774.779 185.513C773.056 183.904 770.987 183.674 759.153 184.134C749.731 184.594 745.364 184.364 745.135 183.444C744.905 182.755 744.445 176.893 744.101 170.456C743.296 154.364 742.951 154.709 762.025 155.744L776.847 156.548L776.732 78.2741L776.503 4.75626e-05H712.503L712.962 63.7917H728.129C736.402 63.7917 743.526 64.1365 743.871 64.4814C744.33 64.8262 744.675 78.2742 744.675 94.3657L744.79 123.56L733.989 124.135C728.129 124.48 714.686 124.595 704.115 124.25L684.926 123.79L684.237 92.5267L652.639 91.8371V76.5501C652.639 63.5618 652.409 61.0332 650.801 60.4585C649.767 60.1136 629.084 59.7688 604.84 59.7688C580.596 59.7688 560.718 59.6539 560.718 59.424C560.603 59.3091 560.258 53.1023 559.914 45.6312L559.224 32.1832L568.876 32.0683C583.813 31.7235 616.445 31.9534 618.284 32.4131C619.662 32.643 619.892 29.9994 619.892 16.4365V4.75626e-05H556.237L556.352 2.52873C556.467 4.02295 556.467 10.3446 556.352 16.6663L556.122 28.1603L542.679 27.8155C535.21 27.5856 529.005 27.2408 528.89 27.1259C528.776 27.1259 528.546 20.9191 528.431 13.448L528.086 4.75626e-05H480.057C435.016 4.75626e-05 432.029 0.114988 432.259 1.95403C432.373 3.10343 432.259 16.5514 432.259 31.8384L432.029 59.7688H402.844C386.758 59.7688 373.314 59.3091 372.969 58.7344C371.706 56.7804 371.935 34.3671 373.199 33.1028C373.889 32.4131 380.553 31.8384 389.515 31.8384L404.567 31.6085L403.878 4.75626e-05H372.74L372.395 13.448C372.28 20.9191 371.82 27.2408 371.476 27.5856C371.016 28.0454 313.451 27.7006 312.876 27.2408C312.761 27.1259 312.531 20.9191 312.302 13.563L311.957 4.75626e-05H248.302L248.187 32.1832ZM495.454 32.4131C496.948 33.6775 497.063 35.9763 496.488 47.1254L495.799 60.3435L480.517 60.4585C471.899 60.4585 464.89 59.9987 464.546 59.424C463.627 57.8148 462.822 37.9302 463.627 34.8269C464.316 31.8384 465.58 31.6085 481.551 31.2637C489.824 31.1488 494.19 31.4936 495.454 32.4131ZM556.007 65.8606C556.352 66.8951 556.582 86.5498 556.352 109.653L556.122 151.606L543.138 151.951C536.129 152.181 529.81 151.836 529.12 151.376C528.431 150.801 527.971 144.824 527.971 137.583V124.71L513.149 124.365C502.004 124.135 497.982 124.48 497.293 125.514C496.718 126.319 496.373 131.951 496.488 137.928C496.488 143.905 496.488 149.537 496.488 150.227C496.373 151.376 492.352 151.721 480.287 151.721H464.201V184.709L451.332 184.364C444.208 184.134 438.004 184.019 437.544 183.904C436.969 183.904 436.625 171.605 436.625 156.548C436.625 141.606 436.28 128.158 435.935 126.664C435.246 124.135 434.901 124.135 417.666 124.135H400.086V137.468C399.971 144.824 399.741 151.031 399.627 151.146C399.282 151.491 380.898 152.066 375.497 151.836L372.28 151.721V122.526C372.28 105.17 372.74 92.9865 373.429 92.5267C374.004 92.1819 401.925 91.952 435.476 91.952H496.373V78.3891C496.373 70.918 496.603 64.4814 496.833 64.2515C497.178 64.0216 510.391 63.7917 526.363 63.9067C552.215 63.9067 555.433 64.1365 556.007 65.8606ZM645.515 91.952H648.043L647.813 138.158L647.469 184.364L635.059 184.249C623.914 184.134 622.65 184.249 621.501 186.318C620.811 187.582 620.352 189.996 620.467 191.72C620.582 193.444 620.697 199.651 620.582 205.398L620.467 216.087H588.294V160.571C588.294 130.112 587.95 102.412 587.605 99.1932C586.916 93.791 587.03 93.1014 589.214 92.2968C590.478 91.7221 603.117 91.4922 617.249 91.7221C631.382 91.8371 644.021 91.952 645.515 91.952ZM712.043 156.778C712.503 157.698 712.732 164.249 712.388 171.49L711.813 184.479L699.289 184.823C692.395 184.938 686.305 184.709 685.616 184.019C684.237 182.64 683.777 158.387 685.156 156.548C686.765 154.479 710.779 154.594 712.043 156.778ZM372.395 157.698C372.395 158.502 372.395 171.95 372.28 187.467L372.165 215.742L388.251 215.857L404.452 216.087V202.294C404.452 188.731 404.452 188.502 407.095 188.387C422.952 187.927 431.224 188.042 431.684 188.846C432.029 189.421 432.259 203.099 432.144 219.305L431.914 248.615L446.621 247.811C457.881 247.236 461.788 247.466 463.282 248.5C464.776 249.765 465.005 251.948 464.546 262.868L463.856 275.856H404.452V262.753C404.452 253.098 404.108 249.535 402.959 249.075C402.154 248.73 387.792 248.5 371.131 248.385C354.47 248.27 340.682 248.04 340.567 247.926C340.338 247.696 339.763 160.801 339.993 157.698C340.108 156.663 344.129 156.318 356.194 156.318C368.259 156.318 372.28 156.663 372.395 157.698ZM495.799 189.191C496.948 190.341 497.408 192.065 497.063 193.559C496.718 194.938 496.373 200.455 496.373 205.972V216.087H464.201L463.971 206.892C463.856 201.835 463.741 195.743 463.741 193.329L463.627 189.076L472.819 188.387C490.858 187.122 493.846 187.237 495.799 189.191ZM556.007 190.226C556.467 191.49 556.582 197.812 556.352 204.248L555.892 216.087H542.219C532.108 216.087 528.546 215.742 528.431 214.593C528.431 213.903 528.201 207.926 527.856 201.375C527.167 187.237 526.592 187.697 543.828 187.812C554.169 187.927 555.318 188.157 556.007 190.226ZM679.871 188.961C680.101 189.191 680.33 202.524 680.445 218.501L680.56 247.696L648.043 248.385V275.856L618.513 276.086L588.869 276.431L587.72 308.614H561.293L560.603 279.304C560.144 262.293 560.373 249.535 560.948 248.845C561.637 248.155 573.013 247.811 591.282 247.926L620.467 248.04L620.237 233.213C620.007 223.673 620.467 217.926 621.271 217.122C622.075 216.317 628.05 215.972 637.702 215.972L652.984 216.087L651.605 188.616L662.176 188.157C672.402 187.812 679.066 188.042 679.871 188.961ZM744.675 217.811C744.56 233.558 743.986 246.891 743.526 247.466C742.377 248.73 714.801 248.845 713.537 247.581C712.732 246.776 711.813 203.674 712.273 190.456C712.388 188.617 713.767 188.502 728.704 188.731L745.02 189.076L744.675 217.811ZM274.614 248.27C275.993 249.19 276.223 251.719 275.993 262.293C275.763 269.419 275.303 275.511 275.074 275.741C274.154 276.775 249.566 276.431 248.646 275.511C247.267 274.247 246.693 261.833 247.497 254.707L248.302 248.385L257.724 247.926C262.894 247.811 268.409 247.466 270.018 247.351C271.627 247.236 273.695 247.696 274.614 248.27ZM712.273 248.96C712.503 249.19 712.732 262.523 712.618 278.385L712.388 307.464L683.433 308.039C667.461 308.384 654.018 308.384 653.443 307.924C652.984 307.579 652.409 301.602 652.065 294.591C651.605 284.476 651.835 281.603 653.099 280.568C654.363 279.534 658.844 279.304 669.185 279.879L683.548 280.568L684.237 275.281C684.697 272.408 684.697 265.741 684.237 260.454C683.203 247.466 683.318 247.351 699.289 248.04C706.183 248.27 712.043 248.73 712.273 248.96ZM247.612 280.913C248.761 281.373 248.991 306.43 247.842 307.694C247.153 308.269 189.587 308.499 189.013 307.809C188.783 307.579 188.438 301.602 188.323 294.476C187.978 284.132 188.208 281.258 189.587 280.454C191.081 279.534 244.395 279.994 247.612 280.913ZM556.007 313.671C556.582 314.706 556.926 320.912 556.811 327.464C556.697 338.268 556.467 339.533 554.399 340.222C552.1 341.027 529.58 340.567 528.776 339.648C528.431 339.418 528.086 333.441 527.856 326.43C527.397 311.257 526.592 311.947 543.598 311.832C553.135 311.717 555.203 312.062 556.007 313.671ZM216.014 340.797C216.819 341.717 216.934 347.119 216.359 357.004L215.44 371.831L207.397 372.75C199.813 373.67 190.162 373.325 188.898 372.176C187.634 370.796 187.059 342.406 188.323 340.912C190.047 338.843 214.291 338.728 216.014 340.797ZM740.998 339.763L744.56 340.452V372.405L730.197 372.52C722.269 372.635 715.145 372.75 714.456 372.865C713.307 372.98 712.732 369.302 712.273 359.762C711.928 352.521 711.813 345.165 712.158 343.441L712.618 340.337L724.337 339.877C730.657 339.763 736.287 339.418 736.632 339.303C737.091 339.188 739.045 339.418 740.998 339.763ZM895.77 340.452C896.345 341.257 896.689 348.728 896.46 357.004L896 372.061L887.727 372.635C883.131 372.98 877.041 372.865 874.284 372.52L869.228 371.831L868.424 356.889C867.849 343.9 867.964 341.717 869.573 340.452C870.722 339.533 875.433 339.073 883.131 339.073C891.174 339.073 895.081 339.533 895.77 340.452ZM182.578 372.291C184.302 373.44 184.531 376.198 184.072 391.371L183.842 400.681L170.513 400.336C163.16 400.221 156.84 399.761 156.381 399.416C155.346 398.267 154.772 381.026 155.576 376.428L156.381 372.52L166.377 372.061C171.892 371.946 177.408 371.601 178.671 371.486C179.935 371.371 181.659 371.716 182.578 372.291ZM868.539 373.095C869.458 373.9 869.228 399.072 868.309 399.646C867.734 399.991 860.266 400.221 851.763 400.106L836.251 399.876L836.481 405.393C836.711 408.382 836.711 415.623 836.596 421.485L836.481 432.059L804.883 432.749L804.194 464.357H729.048C687.799 464.357 653.673 464.013 653.443 463.438C652.294 461.484 651.49 439.53 652.524 437.921C653.558 436.542 656.661 436.197 669.415 436.312L685.156 436.427L684.582 421.6C684.122 409.761 684.352 406.313 685.616 405.048C686.88 403.899 690.212 403.439 697.795 403.554C713.881 403.669 712.962 402.635 712.962 420.795V436.197H744.905L744.33 421.715C743.986 413.669 744.1 406.543 744.56 405.738C745.249 404.589 753.063 404.244 776.847 404.129L808.33 404.014L809.02 372.52L820.165 372.176C832.46 371.831 867.849 372.405 868.539 373.095ZM151.555 405.738C152.014 406.658 152.244 412.979 151.899 419.761L151.44 432.174H92.1508L91.3465 425.508C90.6571 419.531 91.3465 406.428 92.4955 404.704C92.7253 404.359 105.824 404.014 121.795 404.014C146.269 404.014 150.865 404.244 151.555 405.738ZM895.081 404.819C896.574 406.083 896.804 412.405 896.46 451.369L896.115 496.311L887.842 496.771C883.246 497 877.156 496.885 874.169 496.771L868.768 496.311L868.424 452.519C868.194 428.381 868.309 407.692 868.539 406.658C868.998 404.244 869.917 404.129 883.016 403.669C890.37 403.439 893.817 403.784 895.081 404.819ZM771.677 497.345C772.941 498.724 773.285 500.449 772.826 503.322C772.481 505.621 772.136 511.138 772.136 515.736V523.896L759.267 524.356C752.144 524.586 745.824 524.471 745.249 524.011C744.79 523.552 744.1 517.46 743.871 510.448C743.526 499.414 743.756 497.575 745.479 496.656C746.513 496.081 752.488 495.506 758.578 495.506C767.425 495.506 770.183 495.966 771.677 497.345ZM867.734 497.46C868.539 498.265 869.228 554.93 868.424 555.735C867.504 556.769 838.434 556.424 837.515 555.505C836.711 554.7 835.907 511.598 836.366 498.61C836.481 497.345 837.63 496.541 839.698 496.311C844.754 495.736 866.815 496.656 867.734 497.46ZM90.6571 528.609C91.921 529.413 92.2657 532.747 92.2657 542.287C92.2657 549.183 91.921 555.39 91.4614 556.194C90.8869 556.999 86.2908 557.459 78.1328 557.459C67.3321 557.459 65.3788 557.229 64.4596 555.39C63.8851 554.355 63.5404 548.034 63.6553 541.367C63.7702 529.643 63.7702 529.413 66.6427 528.609C70.8941 527.459 88.8187 527.459 90.6571 528.609ZM678.952 528.609C680.101 529.299 680.56 532.977 680.675 542.976L680.79 556.309L673.896 556.539C665.623 556.769 653.443 556.194 652.754 555.62C651.95 554.93 651.72 531.252 652.524 530.103C652.869 529.528 654.248 528.724 655.512 528.379C659.533 527.459 677.228 527.574 678.952 528.609ZM803.849 529.528C805.458 531.138 805.573 533.321 804.998 545.62C804.424 556.654 804.539 559.758 805.688 559.987C806.492 559.987 813.501 560.217 821.199 560.332C828.898 560.332 835.677 560.907 836.136 561.367C836.596 561.826 837.056 568.033 837.056 575.045V587.918L852.567 588.263C861.07 588.378 868.424 588.952 868.883 589.412C869.343 589.872 869.343 596.883 868.883 605.159L868.079 620.101L837.056 621.25V634.124C837.056 641.135 836.711 647.227 836.251 647.687C835.102 648.951 824.187 649.411 816.144 648.721L808.905 648.031V620.446C808.905 603.09 808.445 592.056 807.641 590.676C806.492 588.493 805.458 588.378 792.129 588.607C784.316 588.722 777.652 588.607 777.307 588.378C776.962 587.918 776.388 537.919 776.618 530.793C776.732 528.609 778.456 528.264 791.899 527.919C799.943 527.689 802.355 528.034 803.849 529.528ZM59.1741 561.137C60.0934 561.712 60.4381 575.389 59.7486 587.573C59.7486 588.148 53.544 588.493 46.0754 588.493C34.1257 588.493 32.2873 588.263 31.5978 586.539C30.6786 584.01 32.1723 561.712 33.3214 560.907C34.7002 560.102 57.7953 560.217 59.1741 561.137ZM744.101 561.252C744.33 561.367 744.56 574.7 744.675 590.791L744.79 620.101L712.388 620.791V606.883C712.388 599.067 711.813 591.941 711.124 590.676C709.975 588.493 708.941 588.378 698.025 588.607C691.476 588.837 685.731 588.607 685.156 588.033C684.237 587.228 683.548 562.286 684.352 560.792C684.697 560.102 743.411 560.562 744.101 561.252ZM927.253 560.907C929.092 561.941 929.321 563.206 928.747 573.55C928.287 581.826 928.517 585.504 929.551 586.768C930.815 588.263 935.526 588.493 961.723 588.493H992.517L993.092 591.366C993.321 592.975 993.321 600.216 992.977 607.343L992.402 620.446L982.521 620.791C977.12 621.021 956.438 621.021 936.675 620.676L900.826 620.101L900.711 591.941C900.481 558.493 900.366 561.252 902.894 560.562C906.801 559.528 925.185 559.758 927.253 560.907ZM679.756 588.837C680.675 589.757 680.33 647.342 679.411 648.261C678.492 649.181 622.42 648.376 621.386 647.342C620.122 646.077 619.203 630.331 620.007 625.618C621.041 620.331 625.752 619.067 640.919 619.871L652.869 620.561L652.639 605.963C652.294 587.688 652.18 588.722 655.282 588.263C659.878 587.573 678.952 588.033 679.756 588.837ZM337.58 620.216C339.993 620.906 340.108 621.365 340.108 634.583V648.261L332.984 648.491C328.962 648.491 323.217 648.721 320.23 648.721C317.127 648.836 314.14 648.606 313.566 648.146C312.876 647.802 312.187 641.71 311.842 634.698C311.267 622.055 311.267 621.825 313.91 620.791C316.898 619.526 333.558 619.182 337.58 620.216ZM894.966 620.561C896.23 621.365 896.46 627.227 896.345 650.56C896.345 666.537 896.115 679.87 895.77 680.1C895.196 680.674 837.4 680.674 836.826 679.985C835.792 678.95 835.332 655.503 836.366 654.008C837.285 652.629 840.503 652.284 853.027 652.399L868.539 652.629L869.228 621.25L878.995 620.561C884.395 620.216 889.795 619.871 891.059 619.756C892.323 619.641 894.047 619.986 894.966 620.561ZM399.741 653.663C400.201 654.123 400.431 660.445 400.086 667.456L399.627 680.444H372.625L371.82 676.077C370.786 669.755 371.016 658.031 372.165 654.813C373.199 652.054 373.429 652.054 386.068 652.399C393.192 652.514 399.282 653.089 399.741 653.663ZM771.792 653.089C772.711 654.238 772.941 671.019 772.251 679.525C772.136 680.1 766.047 680.444 758.463 680.444H744.905L744.101 667.571C743.296 655.962 743.411 654.468 745.249 653.204C748.007 651.135 770.298 651.135 771.792 653.089ZM992.057 652.974C992.862 653.778 992.977 656.537 992.862 668.606L992.747 680.444H960.919L960.115 667.686C959.54 659.296 959.655 654.468 960.46 653.549C961.379 652.399 965.745 652.054 976.661 652.284C984.819 652.399 991.828 652.629 992.057 652.974ZM372.165 685.617C372.74 686.306 372.969 692.053 372.625 699.639L371.935 712.628H357.343C340.223 712.628 339.878 712.398 339.189 702.168C338.499 692.743 339.763 685.272 342.176 684.582C345.623 683.548 371.016 684.467 372.165 685.617ZM678.492 684.927C680.56 685.732 680.79 686.881 680.79 698.95V712.053L742.032 712.283C775.813 712.398 803.619 712.628 803.849 712.973C804.653 713.777 804.768 717.225 804.539 731.823L804.309 744.811H744.33L744.56 757.109C744.675 764.006 744.79 770.213 744.675 770.902C744.56 772.052 740.539 772.396 728.474 772.396H712.388L712.158 765.73C712.043 762.167 711.813 756.075 711.813 752.282V745.386L697.565 745.041C687.684 744.811 682.858 745.156 681.709 746.19C680.445 747.225 680.1 749.983 680.215 758.489C680.33 764.581 680.445 770.213 680.33 770.902C680.215 772.052 676.424 772.396 665.278 772.396C651.72 772.396 650.341 772.626 649.192 774.58C648.618 775.845 648.043 783.086 648.043 790.672V804.58H620.467L620.237 779.523C620.007 749.983 620.122 746.995 621.616 745.501C622.305 744.811 628.74 744.351 637.817 744.581L652.754 744.811L652.294 685.617L655.627 684.927C660.338 683.893 675.734 683.893 678.492 684.927ZM123.634 712.973C123.864 713.087 124.093 720.214 124.208 728.719L124.323 744.236L92.1508 744.926L91.5763 739.983C91.2316 737.225 90.8869 730.558 90.772 725.156C90.6571 711.363 90.4273 711.478 108.811 712.168C116.74 712.398 123.519 712.743 123.634 712.973ZM339.648 713.432C340.912 714.812 341.142 717.915 340.452 730.099L339.763 745.156L371.706 744.236L372.05 759.753C372.28 770.328 372.74 775.5 373.774 776.075C374.578 776.649 387.677 776.994 403.074 776.879C418.47 776.764 431.454 777.109 431.914 777.684C432.259 778.258 432.488 784.695 432.259 791.936L431.799 805.154L386.298 804.81C361.25 804.58 340.682 804.35 340.452 804.235C340.337 804.12 340.108 790.672 339.993 774.58L339.763 745.156L327.583 745.615C320.919 745.845 314.829 745.73 314.14 745.156C312.072 743.661 311.382 715.156 313.221 713.202C315.404 711.019 337.35 711.248 339.648 713.432ZM556.007 778.143C556.467 779.063 556.697 785.385 556.352 792.166L555.892 804.58H528.661L527.971 799.637C527.627 796.994 527.397 790.902 527.627 786.189C528.086 776.075 527.741 776.304 544.402 776.419C552.79 776.419 555.318 776.764 556.007 778.143ZM834.528 776.879L868.653 776.994V868.716L860.955 869.176C856.704 869.406 836.022 869.406 814.995 869.176L776.732 868.601V822.855C776.732 780.212 776.847 777.109 778.801 776.764C779.835 776.534 785.12 776.419 790.521 776.534C795.921 776.649 815.684 776.764 834.528 776.879ZM308.165 786.994C308.165 792.626 308.165 798.603 308.05 800.442C307.82 802.166 308.05 805.039 308.51 806.534L309.199 809.522L323.447 808.947C331.26 808.603 338.269 808.718 338.959 809.177C339.878 809.752 340.337 823.545 340.452 855.268L340.682 900.554L356.424 900.899C367.454 901.129 372.165 901.589 372.51 902.623C372.855 903.313 372.74 909.635 372.395 916.646L371.706 929.289H361.709C356.079 929.289 342.865 929.06 332.065 928.945L312.531 928.715V901.014C312.531 883.543 312.072 872.509 311.267 871.13C310.118 868.946 309.084 868.831 295.756 869.061C286.104 869.291 281.048 868.946 280.589 868.141C280.129 867.452 279.899 846.648 280.129 821.936L280.359 776.994H307.935L308.165 786.994ZM925.185 868.601L928.287 869.061L928.977 900.554H944.258C961.034 900.554 962.298 901.129 961.149 907.336C960.804 909.175 960.574 914.922 960.574 920.094V929.634L929.206 929.06L897.723 928.37L897.034 932.163C896.574 934.232 896.23 941.473 896.23 948.37V960.783L883.476 961.128C876.467 961.358 870.262 961.243 869.802 960.898C868.539 960.093 868.079 902.508 869.228 901.359C869.573 900.899 876.811 900.554 885.084 900.554H900.251L900.481 886.762C900.596 879.176 900.711 872.049 900.826 871.015C900.826 869.98 901.975 868.831 903.469 868.601C907.03 867.912 921.393 867.912 925.185 868.601ZM588.294 901.934C589.099 902.738 588.179 928.025 587.375 928.945C586.916 929.404 573.472 929.519 557.501 929.06L528.546 928.37V923.657C528.546 921.014 528.201 915.612 527.856 911.359C526.707 899.865 525.328 900.325 559.109 900.899C574.851 901.129 587.95 901.589 588.294 901.934ZM836.596 901.934C837.056 902.394 837.171 908.715 836.826 915.727L836.136 928.715H820.855C807.296 928.715 805.573 928.945 804.998 930.669C804.653 931.818 804.539 938.944 804.653 946.53L804.883 960.323L776.732 961.473L776.503 945.381L776.158 929.289L760.876 929.06C752.488 929.06 745.25 928.715 744.905 928.37C744.675 928.025 744.215 921.933 743.986 914.922C743.641 903.428 743.871 902.049 745.709 901.359C748.811 900.21 835.447 900.784 836.596 901.934ZM620.582 934.692C620.811 938.485 620.237 992.506 620.007 992.851C619.433 993.311 589.443 993.541 588.869 992.966C588.524 992.506 587.95 945.151 588.294 935.266C588.294 933.542 589.903 933.312 604.381 933.312C616.445 933.312 620.467 933.657 620.582 934.692Z" fill="#1D5B5F"/>
<path d="M806.147 805.384C804.194 805.959 804.079 807.108 804.539 821.016C804.883 829.407 805.458 836.303 805.803 836.418C806.262 836.648 813.271 836.763 821.429 836.763H836.366V821.361L836.481 806.074L832.23 805.269C827.289 804.465 809.479 804.58 806.147 805.384Z" fill="#1D5B5F"/>
<path d="M648.158 16.0916L647.928 32.1832H684.926L684.467 0H648.503L648.158 16.0916Z" fill="#1D5B5F"/>
<path d="M804.309 108.044V215.972L1023.2 215.512L1023.54 107.699L1024 5.12188e-05H804.424L804.309 108.044ZM931.045 31.9534L992.747 32.1832V183.904L986.197 184.019C966.205 184.134 837.171 183.789 836.941 183.559C836.596 183.329 836.251 39.9992 836.481 33.6775C836.481 31.9534 839.928 31.6085 856.014 31.7235C863.253 31.7235 897.034 31.8384 931.045 31.9534Z" fill="#1D5B5F"/>
<path d="M869.228 155.744L914.844 156.088L960.345 156.318L960.46 108.848L960.689 61.263L951.842 60.4584C947.016 60.1136 926.219 59.7688 905.767 59.7688H868.539L869.228 155.744Z" fill="#1D5B5F"/>
<path d="M249.221 92.7566C249.106 93.2163 248.876 100.458 248.761 108.733L248.417 123.79L312.531 124.02V109.078C312.531 94.7106 312.417 94.1359 309.889 93.2163C306.671 91.952 249.336 91.4922 249.221 92.7566Z" fill="#1D5B5F"/>
<path d="M498.097 401.255C478.334 403.324 455.469 413.324 440.417 426.312C429.041 436.082 421.803 445.047 414.679 458.036C399.052 486.771 396.984 517.575 408.589 547.574C410.887 553.321 413.185 560.102 413.874 562.631C415.138 567.573 415.368 566.309 406.636 597.113C404.797 603.435 402.729 610.791 401.925 613.434C401.12 616.078 400.89 618.722 401.35 619.181C401.81 619.526 413.185 616.883 426.628 613.205C439.957 609.527 453.056 606.538 455.583 606.538C458.111 606.538 464.201 608.262 469.027 610.216C484.194 616.423 497.982 618.722 514.987 617.917C527.512 617.457 531.303 616.768 542.564 613.09C570.485 604.009 591.512 587.228 605.645 562.631C615.296 545.735 618.284 535.16 618.973 515.506C619.662 498.495 618.399 488.495 614.147 475.162C598.406 426.887 549.688 395.738 498.097 401.255ZM534.865 422.06C579.332 434.933 607.368 478.61 600.934 524.701C597.831 546.539 584.503 569.183 567.153 582.056C555.892 590.446 547.964 594.584 536.589 598.262C527.971 601.136 524.984 601.481 510.736 601.596C496.029 601.596 493.846 601.366 484.883 598.377C479.483 596.538 472.589 593.895 469.487 592.286C462.248 588.607 455.009 588.722 442.37 592.4C431.799 595.619 428.007 596.079 426.858 594.239C426.513 593.665 427.777 587.458 429.616 580.447C431.569 573.55 433.178 566.424 433.178 564.585C433.178 562.746 430.765 556.424 427.892 550.562C412.151 518.034 415.713 483.897 438.233 453.898C448.919 439.76 463.741 429.416 482.585 422.979C496.373 418.267 520.388 417.807 534.865 422.06Z" fill="#1D5B5F"/>
<path d="M468.108 459.76C465.005 461.024 460.294 467.001 457.882 472.748C456.847 475.162 456.158 480.334 456.158 485.276C456.273 500.334 463.282 512.977 482.585 532.287C496.373 546.195 507.634 553.551 522.226 558.148C538.427 563.321 550.147 561.826 559.11 553.436L564.28 548.608L563.935 541.252C563.591 533.091 564.625 534.126 549.113 527C544.287 524.816 539.576 522.977 538.657 522.977C537.738 522.977 534.176 526.08 530.844 529.988C525.329 536.31 524.524 536.885 521.192 536.08C508.093 533.321 483.734 509.874 483.734 499.989C483.734 498.724 485.343 496.311 487.181 494.587C489.939 492.173 490.628 490.679 490.628 486.886C490.628 481.368 484.539 464.932 481.092 461.139C478.564 458.495 472.819 457.806 468.108 459.76Z" fill="#1D5B5F"/>
<path d="M248.761 560.332L294.492 560.677L340.223 560.907L339.533 524.701L248.072 524.011L248.761 560.332Z" fill="#1D5B5F"/>
<path d="M0 1022.74L15.2819 1023.54C23.5548 1024 72.0431 1024.11 122.944 1023.89L215.44 1023.54L215.785 915.612C215.899 841.016 215.67 807.223 214.865 806.419C213.946 805.499 179.82 805.039 106.743 804.924L0 804.695V1022.74ZM183.497 837.108C183.957 837.682 183.957 992.162 183.497 992.736C183.267 992.966 45.7307 993.311 33.5512 993.081C32.4022 993.081 32.1723 977.105 32.4022 915.152L32.7469 837.338L103.986 836.648C173.386 836.073 182.463 836.188 183.497 837.108Z" fill="#1D5B5F"/>
<path d="M59.9785 914.577L60.3232 960.323L108.352 960.553L156.266 960.668L156.036 915.152L155.691 869.521L107.662 869.176L59.7487 868.946L59.9785 914.577Z" fill="#1D5B5F"/>
<path d="M993.436 961.703C993.091 962.162 992.747 969.059 992.747 977.104C992.747 994.345 991.942 993.541 1007.11 992.621C1012.17 992.391 1017.91 992.047 1019.75 992.047L1023.2 991.932V977.104L1023.31 962.277L1018.6 961.588C1012.28 960.783 994.355 960.783 993.436 961.703Z" fill="#1D5B5F"/>
<path d="M248.991 996.759C248.072 1002.16 247.957 1015.61 248.761 1019.86L249.451 1023.54H279.785L280.129 1010.21C280.474 992.621 280.934 993.081 263.124 993.081H249.566L248.991 996.759Z" fill="#1D5B5F"/>
<path d="M401.81 994.69C400.316 996.299 399.856 998.828 399.856 1006.76C399.856 1012.39 400.201 1018.37 400.546 1020.21L401.235 1023.54L431.799 1023.66C453.515 1023.77 462.707 1023.43 463.282 1022.51C464.546 1020.67 464.431 997.449 463.167 995.495C462.363 994.231 456.043 993.771 432.948 993.311C406.521 992.851 403.648 992.966 401.81 994.69Z" fill="#1D5B5F"/>
</svg>
